<?xml version="1.0" encoding="UTF-8"?>
<svg id="Layer_1" data-name="Layer 1" xmlns="http://www.w3.org/2000/svg" viewBox="0 0 25.99 26">
  <defs>
    <style>
      .cls-1 {
        fill: none;
      }

      .cls-2 {
        fill: #fff4e4;
      }
    </style>
  </defs>
  <g id="Layer_2" data-name="Layer 2">
    <path class="cls-2" d="M20.48,26H5.48C2.45,26,0,23.55,0,20.52c0-.45.06-.91.17-1.35L3.21,6.76c.11-.46.53-.77,1-.76h16.75c.45-.02.86.27,1,.7l3.78,12.16c.52,1.68.22,3.5-.83,4.91-1.03,1.42-2.68,2.25-4.43,2.23ZM4.96,8l-2.89,11.65c-.47,1.88.67,3.78,2.55,4.25.27.07.55.1.82.1h15c1.1,0,2.14-.53,2.79-1.42.67-.9.86-2.06.53-3.13l-3.52-11.45H4.96Z"/>
    <path class="cls-2" d="M16.96,14c-.55,0-1-.45-1-1V5c0-1.66-1.34-3-3-3s-3,1.34-3,3v8c0,.55-.45,1-1,1s-1-.45-1-1V5c0-2.76,2.24-5,5-5s5,2.24,5,5v8c0,.55-.45,1-1,1Z"/>
  </g>
  <g id="frame">
    <rect class="cls-1" width="25.99" height="26"/>
  </g>
</svg>