<?xml version="1.0" encoding="UTF-8"?>
<svg id="Layer_1" data-name="Layer 1" xmlns="http://www.w3.org/2000/svg" viewBox="0 0 396.47 378.52">
  <defs>
    <style>
      .cls-1 {
        fill: #ff965d;
      }
    </style>
  </defs>
  <g id="_1" data-name=" 1">
    <path class="cls-1" d="M311.47,378.52c-2.44,0-4.84-.58-7-1.72l-106.24-55.87-106.26,55.87c-7.34,3.84-16.4,1-20.24-6.34-1.52-2.91-2.05-6.24-1.5-9.47l20.3-118.32L4.53,158.87c-5.93-5.78-6.06-15.28-.28-21.21,2.3-2.37,5.32-3.9,8.59-4.38l118.81-17.26L184.78,8.36c3.67-7.43,12.66-10.48,20.09-6.81,2.96,1.46,5.35,3.85,6.81,6.81l53.13,107.66,118.8,17.26c8.2,1.19,13.88,8.79,12.7,16.99-.47,3.27-2.01,6.29-4.38,8.6l-86,83.8,20.3,118.32c1.4,8.17-4.09,15.92-12.26,17.32-.83.14-1.68.21-2.52.21h.02ZM47.23,158.6l69.85,68.09c3.53,3.44,5.14,8.39,4.32,13.24l-16.49,96.14,86.32-45.36c4.38-2.31,9.62-2.31,14,0l86.34,45.39-16.51-96.17c-.83-4.86.78-9.82,4.31-13.27l69.86-68.06-96.53-14c-4.88-.71-9.1-3.78-11.29-8.2l-43.18-87.47-43.17,87.47c-2.19,4.43-6.41,7.49-11.3,8.2l-96.53,14Z"/>
  </g>
  <polygon class="cls-1" points="83.94 371.08 100.55 241.15 7.97 148.48 136.68 124.13 196.2 7.44 259.13 122.33 388.5 142.87 298.69 238.23 319.12 367.62 200.68 311.66 83.94 371.08"/>
</svg>