<?xml version="1.0" encoding="UTF-8"?>
<svg id="Layer_1" data-name="Layer 1" xmlns="http://www.w3.org/2000/svg" viewBox="0 0 768 768">
  <defs>
    <style>
      .cls-1 {
        fill: #fff4e4;
        fill-rule: evenodd;
      }
    </style>
  </defs>
  <path class="cls-1" d="M384,0c211.93,0,384,172.06,384,384s-172.06,384-384,384S0,595.94,0,384,172.06,0,384,0ZM613.97,268.47c-5.52-20.65-21.78-36.92-42.44-42.44-37.44-10.03-187.54-10.03-187.54-10.03,0,0-150.1,0-187.54,10.03-20.65,5.52-36.92,21.78-42.44,42.44-10.03,37.43-10.03,115.54-10.03,115.54,0,0,0,78.1,10.03,115.53,5.52,20.65,21.79,36.92,42.44,42.44,37.44,10.03,187.54,10.03,187.54,10.03,0,0,150.1,0,187.54-10.03,20.65-5.52,36.92-21.79,42.44-42.44,10.03-37.43,10.03-115.53,10.03-115.53,0,0,0-78.1-10.03-115.54h0ZM336,456v-144l124.71,72-124.71,72h0Z"/>
</svg>