<?xml version="1.0" encoding="UTF-8"?>
<svg id="Layer_1" data-name="Layer 1" xmlns="http://www.w3.org/2000/svg" viewBox="0 0 768 768">
  <defs>
    <style>
      .cls-1 {
        fill: #fff4e4;
        fill-rule: evenodd;
      }
    </style>
  </defs>
  <path class="cls-1" d="M384,0c211.93,0,384,172.06,384,384s-172.06,384-384,384S0,595.94,0,384,172.06,0,384,0ZM384,144c-65.18,0-73.35.28-98.95,1.44-25.54,1.17-42.99,5.22-58.26,11.16-15.78,6.13-29.17,14.34-42.51,27.68s-21.55,26.73-27.68,42.51c-5.93,15.27-9.99,32.71-11.16,58.26-1.17,25.6-1.44,33.77-1.44,98.95s.28,73.35,1.44,98.95c1.17,25.54,5.22,42.99,11.16,58.26,6.13,15.78,14.34,29.17,27.68,42.51,13.34,13.34,26.73,21.55,42.51,27.68,15.27,5.93,32.71,9.99,58.26,11.15,25.6,1.17,33.77,1.44,98.95,1.44s73.35-.28,98.95-1.44c25.54-1.17,42.99-5.22,58.26-11.15,15.78-6.13,29.17-14.34,42.51-27.68,13.34-13.34,21.55-26.73,27.68-42.51,5.93-15.27,9.99-32.71,11.15-58.26,1.17-25.6,1.44-33.77,1.44-98.95s-.28-73.35-1.44-98.95c-1.17-25.54-5.22-42.99-11.15-58.26-6.13-15.78-14.34-29.17-27.68-42.51-13.34-13.34-26.73-21.55-42.51-27.68-15.27-5.93-32.71-9.99-58.26-11.16-25.6-1.17-33.77-1.44-98.95-1.44ZM384,187.24c64.08,0,71.67.24,96.98,1.4,23.4,1.07,36.11,4.98,44.56,8.26,11.2,4.35,19.2,9.55,27.6,17.95,8.4,8.4,13.6,16.39,17.95,27.6,3.29,8.46,7.2,21.16,8.26,44.56,1.15,25.31,1.4,32.9,1.4,96.98s-.24,71.67-1.4,96.98c-1.07,23.4-4.98,36.11-8.26,44.56-4.35,11.2-9.55,19.2-17.95,27.6-8.4,8.4-16.39,13.6-27.6,17.95-8.46,3.29-21.16,7.2-44.56,8.26-25.3,1.15-32.89,1.4-96.98,1.4s-71.68-.24-96.98-1.4c-23.4-1.07-36.11-4.98-44.56-8.26-11.2-4.35-19.2-9.55-27.6-17.95-8.4-8.4-13.6-16.39-17.95-27.6-3.29-8.46-7.2-21.16-8.27-44.56-1.15-25.31-1.4-32.9-1.4-96.98s.24-71.67,1.4-96.98c1.07-23.4,4.98-36.11,8.27-44.56,4.35-11.2,9.55-19.2,17.95-27.6,8.4-8.4,16.39-13.6,27.6-17.95,8.46-3.29,21.16-7.2,44.56-8.26,25.31-1.15,32.9-1.4,96.98-1.4h0ZM384,260.76c-68.07,0-123.24,55.18-123.24,123.24s55.18,123.24,123.24,123.24,123.24-55.18,123.24-123.24-55.18-123.24-123.24-123.24h0ZM384,464c-44.18,0-80-35.82-80-80s35.82-80,80-80,80,35.82,80,80-35.82,80-80,80ZM540.91,255.89c0,15.91-12.9,28.8-28.8,28.8s-28.8-12.89-28.8-28.8,12.89-28.8,28.8-28.8,28.8,12.89,28.8,28.8Z"/>
</svg>