<?xml version="1.0" encoding="UTF-8"?>
<svg id="Layer_1" data-name="Layer 1" xmlns="http://www.w3.org/2000/svg" viewBox="0 0 24 28">
  <defs>
    <style>
      .cls-1 {
        fill: #bee2d2;
      }
    </style>
  </defs>
  <g id="about">
    <path class="cls-1" d="M12,14c3.87,0,7-3.13,7-7S15.87,0,12,0s-7,3.13-7,7,3.13,7,7,7ZM12,2c2.76,0,5,2.24,5,5s-2.24,5-5,5-5-2.24-5-5,2.24-5,5-5Z"/>
    <path class="cls-1" d="M13,16h-2c-6.08,0-11,4.92-11,11,0,.55.45,1,1,1h22c.55,0,1-.45,1-1,0-6.08-4.92-11-11-11ZM2.06,26c.51-4.55,4.36-8,8.94-8h2c4.58,0,8.43,3.45,8.94,8H2.06Z"/>
  </g>
</svg>